<?xml version="1.0" encoding="utf-8"?>
<!-- Designed by Vexels.com - 2020 All Rights Reserved - https://vexels.com/terms-and-conditions/  -->
<svg version="1.1" id="Layer_1" xmlns="http://www.w3.org/2000/svg" xmlns:xlink="http://www.w3.org/1999/xlink" x="0px" y="0px"
	 viewBox="0 0 1200 1200" enable-background="new 0 0 1200 1200" xml:space="preserve">
<g>
	<path fill="#FFC727" d="M204.091,299.499c0.017,0.081,0.034,0.146,0.052,0.229c-0.005-0.024-0.011-0.068-0.017-0.093
		C204.114,299.577,204.103,299.556,204.091,299.499z"/>
	<path fill="#FFC727" d="M202.481,295.639c0.381,0.553,0.852,1.179,1.003,1.55c0.002,0.005,0.004,0.014,0.005,0.019
		c-0.002-0.004-0.003-0.015-0.005-0.019C203.346,296.847,202.972,296.295,202.481,295.639z"/>
	<polygon fill="#FFC727" points="227.504,457.681 227.499,457.684 227.499,457.685 	"/>
	<path fill="#FFC727" d="M160.155,251.985c-5.688-5.634-11.158-11.043-15.804-15.673c0.566,0.592,1.17,1.202,1.745,1.8
		c1.933,2.006,3.877,4.018,5.887,6.058c0.31,0.315,0.629,0.632,0.941,0.947c2.32,2.35,4.665,4.709,7.024,7.06l0.013-0.011
		c10.654,10.621,21.356,21.01,29.535,29.245C181.162,272.824,170.3,262.033,160.155,251.985z"/>
	<path fill="#FFC727" d="M208.962,335.31c4.652,39.635,11.176,98.453,18.537,122.375c0.001-0.001,0,0,0.001-0.001
		C220.135,433.753,213.614,374.828,208.962,335.31z"/>
	<path fill="#FFC727" d="M359.904,390.339c-34.429,33.51-72.908,66.109-106.405,102.745
		c117.383,136.903,607.84,649.868,625.736,656.637c20.144,7.619,204.204-142.668,202.087-196.429
		c-1.854-47.073-475.489-545.228-604.935-678.656C434.262,313.537,398.993,352.295,359.904,390.339z M600.768,773.335
		c3.718-2.472,8.483-2.144,11.804,0.485l0.128,0.104c0,0,4.735,3.756,12.79,10.863c8.019,7.082,19.209,17.174,32.19,29.786
		c13.076,12.503,27.974,27.392,43.535,43.69c15.724,16.151,31.845,33.944,48.055,51.641c15.924,17.951,31.867,35.872,46.374,53.031
		c14.591,17.078,27.969,33.238,39.287,47.11c11.357,13.79,20.675,25.624,27.161,33.206c1.616,1.968,3.06,3.725,4.314,5.254
		c1.079,1.198,1.996,2.217,2.739,3.044c1.508,1.729,2.312,2.651,2.312,2.651l2.215,2.541c3.664,4.202,3.227,10.577-0.974,14.241
		c-3.339,2.911-8.065,3.222-11.697,1.122c0,0-1.576-0.914-4.532-2.63c-1.482-0.901-3.312-2.013-5.461-3.32
		c-1.734-1.257-3.728-2.702-5.963-4.32c-9.098-6.563-20.827-16.228-34.426-28.48c-13.687-12.134-28.951-26.818-44.885-42.933
		c-16.015-16.037-32.364-33.769-48.64-51.553c-15.965-18.06-31.888-36.14-46.152-53.67c-14.397-17.408-27.418-34.016-38.235-48.542
		c-10.914-14.417-19.615-26.869-25.542-35.545c-5.855-8.806-9.2-13.837-9.2-13.837C594.889,782.649,596.145,776.409,600.768,773.335
		z"/>
	<path fill="#FFC727" d="M227.499,457.685C227.499,457.686,227.498,457.686,227.499,457.685c0.328,1.069,0.653,2.313,0.985,3.236
		c0.01,0.027,0.043,0.078,0.053,0.106c-0.011-0.029-0.043-0.079-0.052-0.107C228.153,459.999,227.829,458.754,227.499,457.685z"/>
	<path fill="#FFC727" d="M244.227,139.18c5.107,5.358,11.337,11.898,17.829,18.714c15.552,16.331,32.209,33.833,38.315,40.264
		c-7.085-7.472-21.337-22.486-38.298-40.279l0.002-0.002C256.372,151.894,250.356,145.591,244.227,139.18z"/>
	<path fill="#FFC727" d="M243.748,138.679c-10.615-11.103-21.555-22.515-31.995-33.353c-0.394-0.41-0.784-0.813-1.177-1.222
		c-5.736-5.951-11.279-11.686-16.515-17.081c-0.366-0.378-0.745-0.768-1.107-1.141c-1.306-1.345-2.57-2.644-3.832-3.939
		c-0.891-0.916-1.777-1.824-2.644-2.713c-1.133-1.16-2.242-2.296-3.329-3.407c-0.898-0.918-1.767-1.803-2.632-2.685
		c-0.931-0.948-1.875-1.911-2.764-2.815c-1.333-1.353-2.592-2.628-3.826-3.873c-0.812-0.821-1.594-1.607-2.36-2.377
		c-1.145-1.15-2.264-2.273-3.298-3.302c-0.524-0.522-0.997-0.989-1.492-1.478c-0.844-0.835-1.649-1.629-2.401-2.365
		c-0.492-0.482-0.964-0.939-1.414-1.376c-0.703-0.681-1.34-1.29-1.937-1.856c-0.328-0.312-0.682-0.65-0.977-0.925
		c-0.797-0.744-1.494-1.379-2.036-1.844c-0.024-0.021-0.065-0.06-0.088-0.08c-0.489-0.419-0.985-0.679-1.486-0.787
		c-3.953-0.86-8.246,7.711-12.478,21.087c-1.134,3.583-2.264,7.44-3.38,11.638c-0.528,1.987-1.055,4.032-1.576,6.128
		c-1.452,5.831-2.873,12.064-4.252,18.473c-0.603,2.806-1.201,5.636-1.785,8.498c-1.439,7.052-2.816,14.226-4.108,21.276
		c-1.291,7.05-2.5,13.976-3.598,20.532c-0.733,4.371-1.418,8.577-2.049,12.545c-0.631,3.969-1.206,7.701-1.722,11.121
		c-0.515,3.421-0.97,6.531-1.357,9.258c-0.387,2.727-0.705,5.07-0.95,6.958c-0.245,1.887-0.415,3.318-0.504,4.22
		c-0.09,0.908,0.158,2.045,0.692,3.375c0.179,0.447,0.568,1.036,0.812,1.526c0.483,0.971,0.915,1.908,1.632,3.035
		c0.395,0.621,0.977,1.366,1.437,2.03c0.795,1.148,1.534,2.259,2.509,3.523c0.584,0.759,1.322,1.616,1.966,2.414
		c1.058,1.31,2.068,2.59,3.269,3.991c0.649,0.758,1.408,1.583,2.094,2.364c1.353,1.539,2.683,3.066,4.162,4.682
		c0.691,0.755,1.455,1.551,2.17,2.32c1.604,1.724,3.199,3.446,4.902,5.228c0.007,0.007,0.013,0.014,0.02,0.021
		C178.653,204.622,211.359,168.585,243.748,138.679z"/>
	<path fill="#EBB724" d="M244.227,139.18c-0.148-0.155-0.333-0.349-0.479-0.502l-0.001,0.001
		c-32.389,29.906-65.095,65.943-99.406,97.624c0.003,0.003,0.006,0.006,0.009,0.009c4.646,4.63,10.116,10.038,15.804,15.673
		c10.145,10.049,21.007,20.84,29.34,29.426c6.219,6.408,10.975,11.54,12.987,14.229c0.49,0.655,0.864,1.208,1.004,1.55
		c0.002,0.004,0.003,0.015,0.005,0.019c0.185,0.458,0.391,1.336,0.601,2.29c0.012,0.057,0.023,0.078,0.036,0.136
		c30.312-35.756,63.744-68.138,97.804-99.833c-0.348-0.367-1.059-1.116-1.56-1.643c-6.106-6.432-22.763-23.933-38.315-40.264
		C255.564,151.078,249.334,144.539,244.227,139.18z"/>
	<path fill="#E7EBEC" d="M204.127,299.635c0.005,0.024,0.011,0.068,0.017,0.093c0.217,1.005,0.453,2.339,0.696,3.803
		c0.052,0.316,0.102,0.575,0.156,0.912c0.237,1.488,0.49,3.232,0.751,5.089c0.074,0.527,0.146,1.025,0.221,1.578
		c0.254,1.859,0.519,3.897,0.792,6.043c0.1,0.784,0.2,1.572,0.302,2.39c0.266,2.129,0.54,4.367,0.822,6.713
		c0.15,1.248,0.307,2.552,0.462,3.855c0.201,1.694,0.407,3.423,0.616,5.2c4.652,39.518,11.173,98.443,18.538,122.374
		c0.002-0.002,0.003-0.002,0.005-0.004c13.781-13.789,142.331-142.26,218.503-213.977c-0.002-0.002-0.003-0.003-0.005-0.005
		c-0.706-0.686-1.249-1.204-1.602-1.522c-0.033-0.03-0.123-0.119-0.152-0.144c-17.289-15.173-134.818-37.749-139.037-38.769
		c0,0-1.163-1.228-3.279-3.461C267.87,231.497,234.438,263.879,204.127,299.635z"/>
	<path fill="#EBB724" d="M227.499,457.684C227.498,457.685,227.499,457.684,227.499,457.684c-0.32,0.321-0.466,0.467-0.666,0.666
		c0.176-0.176,0.407-0.407,0.665-0.665C227.498,457.686,227.499,457.686,227.499,457.684L227.499,457.684z"/>
	<path fill="#EBB724" d="M227.499,457.685c0.33,1.069,0.654,2.313,0.986,3.235c0.01,0.028,0.041,0.078,0.052,0.107
		c0.173,0.457,0.462,1.03,0.867,1.722c0.19,0.325,0.474,0.746,0.715,1.122c0.298,0.466,0.576,0.913,0.949,1.455
		c0.378,0.549,0.837,1.181,1.291,1.806c0.346,0.478,0.676,0.94,1.066,1.461c0.59,0.79,1.245,1.646,1.932,2.534
		c0.336,0.435,0.667,0.864,1.027,1.322c0.832,1.062,1.721,2.18,2.675,3.364c0.274,0.34,0.556,0.687,0.84,1.038
		c1.1,1.357,2.253,2.768,3.498,4.272c0.138,0.166,0.283,0.34,0.423,0.508c2.724,3.283,5.817,6.938,9.182,10.867
		c0.182,0.212,0.312,0.372,0.495,0.587c0.001-0.001,0.002-0.002,0.002-0.002c33.497-36.635,71.976-69.235,106.405-102.745
		c39.088-38.044,74.358-76.802,116.483-115.704c-0.037-0.038-0.065-0.067-0.103-0.105c-3.738-3.855-7.178-7.391-10.324-10.618
		c-0.24-0.246-0.452-0.464-0.689-0.706c-3.044-3.12-5.838-5.978-8.269-8.452c-0.037-0.038-0.072-0.073-0.109-0.111
		c-2.541-2.587-4.735-4.807-6.555-6.636c-1.821-1.83-3.269-3.269-4.319-4.29c-0.003-0.003-0.011-0.011-0.014-0.014
		c-76.172,71.717-204.722,200.188-218.503,213.977C227.503,457.682,227.501,457.684,227.499,457.685z"/>
	<path fill="#FFFFFF" d="M607.163,801.11c5.928,8.676,14.628,21.128,25.542,35.545c10.817,14.527,23.838,31.134,38.235,48.542
		c14.264,17.53,30.187,35.61,46.152,53.67c16.277,17.785,32.625,35.516,48.64,51.553c15.933,16.115,31.198,30.799,44.885,42.933
		c13.599,12.252,25.328,21.917,34.426,28.48c2.234,1.618,4.228,3.063,5.963,4.32c2.149,1.307,3.979,2.419,5.461,3.32
		c2.956,1.715,4.532,2.63,4.532,2.63c3.633,2.1,8.358,1.79,11.697-1.122c4.201-3.664,4.639-10.039,0.974-14.241l-2.215-2.541
		c0,0-0.804-0.922-2.312-2.651c-0.743-0.827-1.66-1.846-2.739-3.044c-1.254-1.529-2.698-3.286-4.314-5.254
		c-6.485-7.582-15.804-19.416-27.161-33.206c-11.317-13.872-24.696-30.033-39.287-47.11c-14.508-17.159-30.45-35.08-46.374-53.031
		c-16.21-17.696-32.332-35.49-48.055-51.641c-15.561-16.298-30.459-31.187-43.535-43.69c-12.982-12.612-24.171-22.704-32.19-29.786
		c-8.056-7.106-12.79-10.863-12.79-10.863l-0.128-0.104c-3.321-2.629-8.086-2.957-11.804-0.485
		c-4.624,3.074-5.879,9.314-2.806,13.938C597.962,787.273,601.308,792.304,607.163,801.11z"/>
</g>
</svg>
